<?xml version="1.0" standalone="no"?><!DOCTYPE svg PUBLIC "-//W3C//DTD SVG 1.1//EN" "http://www.w3.org/Graphics/SVG/1.1/DTD/svg11.dtd"><svg class="icon-quote" version="1.1" xmlns="http://www.w3.org/2000/svg" xmlns:xlink="http://www.w3.org/1999/xlink" style="block-size:29px;border-block-end-color:rgb(225, 225, 225);border-block-start-color:rgb(225, 225, 225);border-bottom-color:rgb(225, 225, 225);border-inline-end-color:rgb(225, 225, 225);border-inline-start-color:rgb(225, 225, 225);border-left-color:rgb(225, 225, 225);border-right-color:rgb(225, 225, 225);border-top-color:rgb(225, 225, 225);bottom:294px;caret-color:rgb(225, 225, 225);color:rgb(225, 225, 225);column-rule-color:rgb(225, 225, 225);display:block;fill:rgb(69, 69, 70);font-size:14px;font-style:italic;height:29px;inline-size:38px;inset-block-end:294px;inset-block-start:15px;inset-inline-end:961px;inset-inline-start:15px;left:15px;letter-spacing:0.3px;line-height:21px;outline-color:rgb(225, 225, 225);overflow-wrap:break-word;perspective-origin:19px 14.5px;position:absolute;right:961px;text-align:-moz-left;text-decoration-color:rgb(225, 225, 225);text-emphasis-color:rgb(225, 225, 225);top:15px;transform-origin:19px 14.5px;width:38px;-webkit-text-fill-color:rgb(225, 225, 225);-webkit-text-stroke-color:rgb(225, 225, 225);"><path class="path1" d="M0 20.674c0 7.225 4.668 11.337 9.892 11.337 4.824-0.062 8.719-3.956 8.781-8.775 0-4.785-3.334-8.009-7.558-8.009-0.078-0.004-0.17-0.006-0.262-0.006-0.703 0-1.377 0.124-2.001 0.352 1.041-4.014 5.153-8.683 8.71-10.572l-6.113-5.002c-6.891 4.891-11.448 12.338-11.448 20.674zM22.675 20.674c0 7.225 4.668 11.337 9.892 11.337 4.8-0.056 8.67-3.961 8.67-8.769 0-0.004 0-0.008 0-0.012 0-4.779-3.223-8.002-7.447-8.002-0.095-0.006-0.206-0.009-0.318-0.009-0.684 0-1.339 0.126-1.943 0.355 0.927-4.014 5.15-8.682 8.707-10.572l-6.124-5.002c-6.891 4.891-11.437 12.338-11.437 20.674z" style="block-size:auto;border-block-end-color:rgb(225, 225, 225);border-block-start-color:rgb(225, 225, 225);border-bottom-color:rgb(225, 225, 225);border-inline-end-color:rgb(225, 225, 225);border-inline-start-color:rgb(225, 225, 225);border-left-color:rgb(225, 225, 225);border-right-color:rgb(225, 225, 225);border-top-color:rgb(225, 225, 225);caret-color:rgb(225, 225, 225);color:rgb(225, 225, 225);column-rule-color:rgb(225, 225, 225);fill:rgb(69, 69, 70);font-size:14px;font-style:italic;height:auto;inline-size:auto;letter-spacing:0.3px;line-height:21px;outline-color:rgb(225, 225, 225);overflow:visible;overflow-wrap:break-word;overflow-x:visible;overflow-y:visible;perspective-origin:19px 14.5px;text-align:-moz-left;text-decoration-color:rgb(225, 225, 225);text-emphasis-color:rgb(225, 225, 225);transform-origin:0px 0px;width:auto;-moz-user-select:none;-webkit-text-fill-color:rgb(225, 225, 225);-webkit-text-stroke-color:rgb(225, 225, 225);"/></svg>