<?xml version="1.0" standalone="no"?><!DOCTYPE svg PUBLIC "-//W3C//DTD SVG 1.1//EN" "http://www.w3.org/Graphics/SVG/1.1/DTD/svg11.dtd"><svg style="border-bottom-color:rgb(87, 165, 204);border-left-color:rgb(87, 165, 204);border-right-color:rgb(87, 165, 204);border-top-color:rgb(87, 165, 204);color:rgb(87, 165, 204);cursor:pointer;height:35px;outline-color:rgb(87, 165, 204);text-decoration:none solid rgb(87, 165, 204);text-decoration-color:rgb(87, 165, 204);width:35px;column-rule-color:rgb(87, 165, 204);perspective-origin:74px 17.5px;-webkit-text-emphasis-color:rgb(87, 165, 204);-webkit-text-fill-color:rgb(87, 165, 204);-webkit-text-stroke-color:rgb(87, 165, 204);transform-origin:74px 17.5px;caret-color:rgb(87, 165, 204);" version="1.1" x="0px" y="0px" viewBox="0 0 162.5 162.5" xmlns="http://www.w3.org/2000/svg" xmlns:xlink="http://www.w3.org/1999/xlink">
<g style="border-bottom-color:rgb(87, 165, 204);border-left-color:rgb(87, 165, 204);border-right-color:rgb(87, 165, 204);border-top-color:rgb(87, 165, 204);color:rgb(87, 165, 204);cursor:pointer;height:auto;outline-color:rgb(87, 165, 204);overflow-x:visible;overflow-y:visible;text-decoration:none solid rgb(87, 165, 204);text-decoration-color:rgb(87, 165, 204);width:auto;column-rule-color:rgb(87, 165, 204);perspective-origin:0px 0px;-webkit-text-emphasis-color:rgb(87, 165, 204);-webkit-text-fill-color:rgb(87, 165, 204);-webkit-text-stroke-color:rgb(87, 165, 204);transform-origin:0px 0px;caret-color:rgb(87, 165, 204);">
<g style="border-bottom-color:rgb(87, 165, 204);border-left-color:rgb(87, 165, 204);border-right-color:rgb(87, 165, 204);border-top-color:rgb(87, 165, 204);color:rgb(87, 165, 204);cursor:pointer;height:auto;outline-color:rgb(87, 165, 204);overflow-x:visible;overflow-y:visible;text-decoration:none solid rgb(87, 165, 204);text-decoration-color:rgb(87, 165, 204);width:auto;column-rule-color:rgb(87, 165, 204);perspective-origin:0px 0px;-webkit-text-emphasis-color:rgb(87, 165, 204);-webkit-text-fill-color:rgb(87, 165, 204);-webkit-text-stroke-color:rgb(87, 165, 204);transform-origin:0px 0px;caret-color:rgb(87, 165, 204);">
<g style="border-bottom-color:rgb(87, 165, 204);border-left-color:rgb(87, 165, 204);border-right-color:rgb(87, 165, 204);border-top-color:rgb(87, 165, 204);color:rgb(87, 165, 204);cursor:pointer;height:auto;outline-color:rgb(87, 165, 204);overflow-x:visible;overflow-y:visible;text-decoration:none solid rgb(87, 165, 204);text-decoration-color:rgb(87, 165, 204);width:auto;column-rule-color:rgb(87, 165, 204);perspective-origin:0px 0px;-webkit-text-emphasis-color:rgb(87, 165, 204);-webkit-text-fill-color:rgb(87, 165, 204);-webkit-text-stroke-color:rgb(87, 165, 204);transform-origin:0px 0px;caret-color:rgb(87, 165, 204);">
<path d="M44.4,162.5c-0.6,0-1.3,0-1.9-0.1c-1.5-0.2-2.9-0.5-4.5-1c-2.8-0.9-5.2-2.2-6.9-3.2c-3.8-2.2-7.7-4.9-11.8-8.3 c-1.8-1.5-3.6-3.1-5.3-4.7l-1.4-1.4c-1-0.9-1.9-1.9-2.6-3c-1.3-2-2.4-4.6-2.5-8c-0.1-1.1-0.2-2.2-0.2-3.4c0-2.4,0.1-5,0.5-7.5 c0.7-5.2,2.4-9.8,3.7-13.3c0.1-0.3,0.2-0.6,0.3-0.9c-0.4-0.9-0.7-1.9-1.1-2.9C8.9,99.6,7.7,93.8,7.1,88 c-0.6-6.1-0.4-12.3,0.5-18.4c0.2-1.3,0.4-2.6,0.7-3.8C5.9,62.3,2.9,57.3,1,51.5l0-0.1c-0.4-1.2-1.4-4.2-0.8-8 c0.2-1.4,0.5-2.8,1-4.3c0.9-2.8,2.2-5.1,3.2-6.8c2.2-3.8,4.9-7.6,8.2-11.7c1.5-1.8,3-3.6,4.6-5.2l1.4-1.4 c0.7-0.8,1.5-1.5,2.4-2.1c2-1.5,4.8-2.8,8.6-2.9c1.2-0.1,2.5-0.2,3.8-0.2h0.1c2.5,0,5.2,0.2,7.8,0.6c4,0.6,7.6,1.7,10.8,2.9 c2.1-0.9,4.3-1.7,6.6-2.5C64.1,8,69.9,6.8,75.7,6.4C81.8,5.9,88,6.2,93.9,7.2c1.4,0.2,2.8,0.5,4.2,0.8c4.7-3.2,9-5.5,13.5-6.9 l0.1,0c1-0.4,3.2-1.1,6.1-1.1c0.6,0,1.3,0,1.9,0.1c1.5,0.2,2.9,0.5,4.5,1c2.8,0.9,5.2,2.2,6.9,3.2c3.8,2.2,7.7,4.9,11.8,8.3 c1.8,1.5,3.6,3.1,5.3,4.7l1.4,1.4c0.7,0.6,1.4,1.3,1.9,2.1c1.8,2.3,3.2,5.6,3.3,10.2c0.1,1.6,0.1,3.3,0,5 c-0.2,3.7-0.7,7.2-1.6,10.4c-0.7,2.4-1.5,4.8-2.4,7.2c1.8,4.5,3.1,9.1,4,13.8c1.8,9.9,1.6,20.1-0.6,29.9c1.3,1.9,2.5,3.7,3.5,5.5 c1.7,3,3.1,6.1,4.1,9.3c0.4,1.2,1.3,4.2,0.7,8.2c-0.2,1.4-0.6,2.7-1.1,4.2c-1.8,5.1-4.6,9.3-7.1,12.8c-2.7,3.8-5.8,7.5-9,10.9 l-1.2,1.2c-0.7,0.8-1.5,1.5-2.4,2.2c-2,1.5-4.8,2.7-8.6,2.9c-1.2,0.1-2.5,0.2-3.8,0.2h-0.1c-2.7,0-5.4-0.2-8.2-0.7 c-4.5-0.7-8.5-2.1-12.1-3.5c-1.9,0.8-3.9,1.5-5.8,2.1c-5.6,1.7-11.5,2.8-17.4,3.1c-6.1,0.4-12.3-0.1-18.3-1.2 c-0.7-0.1-1.5-0.3-2.2-0.4c-5.2,3.7-9.8,6.1-14.6,7.7l-0.1,0C49.5,161.7,47.3,162.5,44.4,162.5L44.4,162.5z M24.6,134.1l10.6,3.7 c0.9-2.6,1-5.4,0.4-8c0,0.2,0,0.5,0.1,0.7c0,0.3,0.1,0.7,0.1,1.1c-0.1-2-0.8-4.6-2.6-7c-0.7-0.9-1.5-1.7-2.4-2.4l0.5,0.4l0.9,0.9 c-0.8-0.8-1.7-1.6-2.7-2.3L24.6,134.1L24.6,134.1z M123.7,129.4c-0.8,0.8-1.6,1.6-2.3,2.7l11.9,4.6l0-11.1c0,0,0,0,0,0 c-1.1,0-2.2,0.1-3.2,0.4c0.2,0,0.4,0,0.6,0c0.3,0,0.7-0.1,1.1-0.1c-1.8,0.1-4.2,0.7-6.4,2.1c-1.2,0.8-2.2,1.7-3.1,2.9l0.4-0.5 L123.7,129.4L123.7,129.4z M35.8,126.8c0.5,0.4,1,0.8,1.5,1.3c2.6,2.2,5,3.9,7.2,5.2c1.4-0.7,3-1.7,4.7-3 c0.5-0.3,0.9-0.7,1.4-1.1c0.3-0.2,0.5-0.5,0.8-0.7c0.1-0.1,0.3-0.3,0.4-0.4l6.2-6.3l8.4,2.9c0.3,0.1,0.6,0.2,0.8,0.3 c1.8,0.6,3.6,1,5.4,1.4c3.7,0.7,7.6,1,11.4,0.7c3.6-0.2,7.3-0.9,10.7-1.9c1.7-0.5,3.4-1.1,5-1.9c0.8-0.3,1.6-0.7,2.3-1.1 c2-1,4.3-1.6,6.6-1.6c3.6,0,6.3,1.3,7.6,2c0.4,0.2,0.8,0.4,1.3,0.5c2.5,1,5.4,2.2,8,2.6c0.4,0.1,0.9,0.1,1.3,0.2 c1.5-1.7,2.9-3.5,4.2-5.3c0.8-1.1,1.6-2.2,2.3-3.3c-0.1-0.2-0.2-0.4-0.4-0.7c-0.7-1.2-1.5-2.4-2.5-3.9c-0.3-0.5-0.7-0.9-1.1-1.4 c-0.2-0.2-0.3-0.4-0.5-0.6c-4.1-4-5.5-9.7-3.6-15.1c0.1-0.3,0.2-0.6,0.3-0.8c2.3-7.2,2.7-14.9,1.4-22.3c-0.7-3.5-1.7-7-3.2-10.3 c-0.1-0.3-0.3-0.6-0.4-0.9c-3.3-6.1-1.9-11.3-0.7-13.8c0.5-1,0.9-2.1,1.3-3.1c0.8-1.9,1.4-3.9,2-5.7c0.2-0.9,0.4-1.8,0.5-2.9 c-0.5-0.4-1-0.8-1.5-1.3c-2.7-2.2-5-3.9-7.2-5.2c-1.4,0.8-3,1.8-4.8,3c-0.5,0.4-1,0.8-1.5,1.2c-0.1,0.1-0.3,0.2-0.4,0.4 c-2.7,2.6-6.3,4-10,4c-1.8,0-3.5-0.3-5.2-1c-0.4-0.1-0.8-0.3-1.2-0.4c-1.8-0.5-3.6-1-5.5-1.3c-3.7-0.6-7.6-0.8-11.4-0.5 c-3.6,0.3-7.2,1-10.6,2.1c-1.7,0.5-3.3,1.2-4.9,1.9c-0.8,0.3-1.5,0.7-2.3,1.1L59.5,40c-2.1,1.2-4.6,1.8-7,1.8 c-2.2,0-4.4-0.5-6.5-1.5c-0.5-0.2-0.9-0.4-1.4-0.6c-2.4-1-5.3-2.1-7.8-2.4c-0.4-0.1-0.8-0.1-1.1-0.2c-0.4,0.5-0.8,1-1.2,1.4 c-2.2,2.7-3.9,5-5.2,7.3c0.7,1.4,1.7,2.9,2.9,4.7c0.3,0.5,0.7,1,1.1,1.4c0.2,0.3,0.5,0.5,0.7,0.8l5.8,6.1l-2.5,8 c-0.2,0.5-0.3,1-0.5,1.5c-0.5,1.8-0.9,3.7-1.2,5.6c-0.6,3.8-0.7,7.6-0.3,11.5c0.3,3.6,1.1,7.2,2.3,10.6c0.6,1.7,1.3,3.3,2,4.9 c0.1,0.2,0.2,0.4,0.3,0.6c2.1,4.3,2.1,9.1-0.1,13.4c-0.2,0.4-0.4,0.8-0.5,1.2c-0.4,1-0.9,2-1.3,3c-0.8,2.2-1.8,4.8-2.1,7.1 C35.9,126.3,35.8,126.6,35.8,126.8L35.8,126.8z M129.9,38.8c0.8,0.8,1.7,1.6,2.8,2.4l4.9-12.9L127,24.6c-0.9,2.6-1,5.4-0.4,8 c0-0.1,0-0.2,0-0.3c0-0.3,0-0.8,0-1.3v-0.1c0,1.5,0.5,4,2.1,6.4c0.8,1.1,1.7,2.1,2.8,3l-0.5-0.4L129.9,38.8L129.9,38.8z  M29.3,26.3l0,11.1c1.1,0,2.2-0.1,3.2-0.4c-0.2,0-0.4,0-0.6,0c-0.3,0-0.7,0.1-1.1,0.1c1.8-0.1,4.2-0.7,6.4-2.1 c1.2-0.8,2.2-1.7,3.1-2.9l-0.4,0.5l-0.9,1c0.8-0.8,1.6-1.7,2.3-2.7L29.3,26.3L29.3,26.3z" style="border-bottom-color:rgb(87, 165, 204);border-left-color:rgb(87, 165, 204);border-right-color:rgb(87, 165, 204);border-top-color:rgb(87, 165, 204);color:rgb(87, 165, 204);cursor:pointer;height:auto;outline-color:rgb(87, 165, 204);overflow-x:visible;overflow-y:visible;text-decoration:none solid rgb(87, 165, 204);text-decoration-color:rgb(87, 165, 204);width:auto;column-rule-color:rgb(87, 165, 204);perspective-origin:0px 0px;-webkit-text-emphasis-color:rgb(87, 165, 204);-webkit-text-fill-color:rgb(87, 165, 204);-webkit-text-stroke-color:rgb(87, 165, 204);transform-origin:0px 0px;d:path(&quot;M 44.4 162.5 C 43.8 162.5 43.1 162.5 42.5 162.4 C 41 162.2 39.6 161.9 38 161.4 C 35.2 160.5 32.8 159.2 31.1 158.2 C 27.3 156 23.4 153.3 19.3 149.9 C 17.5 148.4 15.7 146.8 14 145.2 L 12.6 143.8 C 11.6 142.9 10.7 141.9 10 140.8 C 8.7 138.8 7.6 136.2 7.5 132.8 C 7.4 131.7 7.3 130.6 7.3 129.4 C 7.3 127 7.4 124.4 7.8 121.9 C 8.5 116.7 10.2 112.1 11.5 108.6 C 11.6 108.3 11.7 108 11.8 107.7 C 11.4 106.8 11.1 105.8 10.7 104.8 C 8.9 99.6 7.7 93.8 7.1 88 C 6.5 81.9 6.7 75.7 7.6 69.6 C 7.8 68.3 8 67 8.3 65.8 C 5.9 62.3 2.9 57.3 1 51.5 L 1 51.4 C 0.6 50.2 -0.4 47.2 0.2 43.4 C 0.4 42 0.7 40.6 1.2 39.1 C 2.1 36.3 3.4 34 4.4 32.3 C 6.6 28.5 9.3 24.7 12.6 20.6 C 14.1 18.8 15.6 17 17.2 15.4 L 18.6 14 C 19.3 13.2 20.1 12.5 21 11.9 C 23 10.4 25.8 9.1 29.6 9 C 30.8 8.9 32.1 8.8 33.4 8.8 H 33.5 C 36 8.8 38.7 9 41.3 9.4 C 45.3 10 48.9 11.1 52.1 12.3 C 54.2 11.4 56.4 10.6 58.7 9.8 C 64.1 8 69.9 6.8 75.7 6.4 C 81.8 5.9 88 6.2 93.9 7.2 C 95.3 7.4 96.7 7.7 98.1 8 C 102.8 4.8 107.1 2.5 111.6 1.1 L 111.7 1.1 C 112.7 0.7 114.9 -1.19209e-7 117.8 -1.19209e-7 C 118.4 -1.19209e-7 119.1 -1.19209e-7 119.7 0.0999999 C 121.2 0.3 122.6 0.6 124.2 1.1 C 127 2 129.4 3.3 131.1 4.3 C 134.9 6.5 138.8 9.2 142.9 12.6 C 144.7 14.1 146.5 15.7 148.2 17.3 L 149.6 18.7 C 150.3 19.3 151 20 151.5 20.8 C 153.3 23.1 154.7 26.4 154.8 31 C 154.9 32.6 154.9 34.3 154.8 36 C 154.6 39.7 154.1 43.2 153.2 46.4 C 152.5 48.8 151.7 51.2 150.8 53.6 C 152.6 58.1 153.9 62.7 154.8 67.4 C 156.6 77.3 156.4 87.5 154.2 97.3 C 155.5 99.2 156.7 101 157.7 102.8 C 159.4 105.8 160.8 108.9 161.8 112.1 C 162.2 113.3 163.1 116.3 162.5 120.3 C 162.3 121.7 161.9 123 161.4 124.5 C 159.6 129.6 156.8 133.8 154.3 137.3 C 151.6 141.1 148.5 144.8 145.3 148.2 L 144.1 149.4 C 143.4 150.2 142.6 150.9 141.7 151.6 C 139.7 153.1 136.9 154.3 133.1 154.5 C 131.9 154.6 130.6 154.7 129.3 154.7 H 129.2 C 126.5 154.7 123.8 154.5 121 154 C 116.5 153.3 112.5 151.9 108.9 150.5 C 107 151.3 105 152 103.1 152.6 C 97.5 154.3 91.6 155.4 85.7 155.7 C 79.6 156.1 73.4 155.6 67.4 154.5 C 66.7 154.4 65.9 154.2 65.2 154.1 C 60 157.8 55.4 160.2 50.6 161.8 L 50.5 161.8 C 49.5 161.7 47.3 162.5 44.4 162.5 L 44.4 162.5 Z M 24.6 134.1 L 35.2 137.8 C 36.1 135.2 36.2 132.4 35.6 129.8 C 35.6 130 35.6 130.3 35.7 130.5 C 35.7 130.8 35.8 131.2 35.8 131.6 C 35.7 129.6 35 127 33.2 124.6 C 32.5 123.7 31.7 122.9 30.8 122.2 L 31.3 122.6 L 32.2 123.5 C 31.4 122.7 30.5 121.9 29.5 121.2 L 24.6 134.1 L 24.6 134.1 Z M 123.7 129.4 C 122.9 130.2 122.1 131 121.4 132.1 L 133.3 136.7 L 133.3 125.6 C 133.3 125.6 133.3 125.6 133.3 125.6 C 132.2 125.6 131.1 125.7 130.1 126 C 130.3 126 130.5 126 130.7 126 C 131 126 131.4 125.9 131.8 125.9 C 130 126 127.6 126.6 125.4 128 C 124.2 128.8 123.2 129.7 122.3 130.9 L 122.7 130.4 L 123.7 129.4 L 123.7 129.4 Z M 35.8 126.8 C 36.3 127.2 36.8 127.6 37.3 128.1 C 39.9 130.3 42.3 132 44.5 133.3 C 45.9 132.6 47.5 131.6 49.2 130.3 C 49.7 130 50.1 129.6 50.6 129.2 C 50.9 129 51.1 128.7 51.4 128.5 C 51.5 128.4 51.7 128.2 51.8 128.1 L 58 121.8 L 66.4 124.7 C 66.7 124.8 67 124.9 67.2 125 C 69 125.6 70.8 126 72.6 126.4 C 76.3 127.1 80.2 127.4 84 127.1 C 87.6 126.9 91.3 126.2 94.7 125.2 C 96.4 124.7 98.1 124.1 99.7 123.3 C 100.5 123 101.3 122.6 102 122.2 C 104 121.2 106.3 120.6 108.6 120.6 C 112.2 120.6 114.9 121.9 116.2 122.6 C 116.6 122.8 117 123 117.5 123.1 C 120 124.1 122.9 125.3 125.5 125.7 C 125.9 125.8 126.4 125.8 126.8 125.9 C 128.3 124.2 129.7 122.4 131 120.6 C 131.8 119.5 132.6 118.4 133.3 117.3 C 133.2 117.1 133.1 116.9 132.9 116.6 C 132.2 115.4 131.4 114.2 130.4 112.7 C 130.1 112.2 129.7 111.8 129.3 111.3 C 129.1 111.1 129 110.9 128.8 110.7 C 124.7 106.7 123.3 101 125.2 95.6 C 125.3 95.3 125.4 95 125.5 94.8 C 127.8 87.6 128.2 79.9 126.9 72.5 C 126.2 69 125.2 65.5 123.7 62.2 C 123.6 61.9 123.4 61.6 123.3 61.3 C 120 55.2 121.4 50 122.6 47.5 C 123.1 46.5 123.5 45.4 123.9 44.4 C 124.7 42.5 125.3 40.5 125.9 38.7 C 126.1 37.8 126.3 36.9 126.4 35.8 C 125.9 35.4 125.4 35 124.9 34.5 C 122.2 32.3 119.9 30.6 117.7 29.3 C 116.3 30.1 114.7 31.1 112.9 32.3 C 112.4 32.7 111.9 33.1 111.4 33.5 C 111.3 33.6 111.1 33.7 111 33.9 C 108.3 36.5 104.7 37.9 101 37.9 C 99.2 37.9 97.5 37.6 95.8 36.9 C 95.4 36.8 95 36.6 94.6 36.5 C 92.8 36 91 35.5 89.1 35.2 C 85.4 34.6 81.5 34.4 77.7 34.7 C 74.1 35 70.5 35.7 67.1 36.8 C 65.4 37.3 63.8 38 62.2 38.7 C 61.4 39 60.7 39.4 59.9 39.8 L 59.5 40 C 57.4 41.2 54.9 41.8 52.5 41.8 C 50.3 41.8 48.1 41.3 46 40.3 C 45.5 40.1 45.1 39.9 44.6 39.7 C 42.2 38.7 39.3 37.6 36.8 37.3 C 36.4 37.2 36 37.2 35.7 37.1 C 35.3 37.6 34.9 38.1 34.5 38.5 C 32.3 41.2 30.6 43.5 29.3 45.8 C 30 47.2 31 48.7 32.2 50.5 C 32.5 51 32.9 51.5 33.3 51.9 C 33.5 52.2 33.8 52.4 34 52.7 L 39.8 58.8 L 37.3 66.8 C 37.1 67.3 37 67.8 36.8 68.3 C 36.3 70.1 35.9 72 35.6 73.9 C 35 77.7 34.9 81.5 35.3 85.4 C 35.6 89 36.4 92.6 37.6 96 C 38.2 97.7 38.9 99.3 39.6 100.9 C 39.7 101.1 39.8 101.3 39.9 101.5 C 42 105.8 42 110.6 39.8 114.9 C 39.6 115.3 39.4 115.7 39.3 116.1 C 38.9 117.1 38.4 118.1 38 119.1 C 37.2 121.3 36.2 123.9 35.9 126.2 C 35.9 126.3 35.8 126.6 35.8 126.8 L 35.8 126.8 Z M 129.9 38.8 C 130.7 39.6 131.6 40.4 132.7 41.2 L 137.6 28.3 L 127 24.6 C 126.1 27.2 126 30 126.6 32.6 C 126.6 32.5 126.6 32.4 126.6 32.3 C 126.6 32 126.6 31.5 126.6 31 V 30.9 C 126.6 32.4 127.1 34.9 128.7 37.3 C 129.5 38.4 130.4 39.4 131.5 40.3 L 131 39.9 L 129.9 38.8 L 129.9 38.8 Z M 29.3 26.3 L 29.3 37.4 C 30.4 37.4 31.5 37.3 32.5 37 C 32.3 37 32.1 37 31.9 37 C 31.6 37 31.2 37.1 30.8 37.1 C 32.6 37 35 36.4 37.2 35 C 38.4 34.2 39.4 33.3 40.3 32.1 L 39.9 32.6 L 39 33.6 C 39.8 32.8 40.6 31.9 41.3 30.9 L 29.3 26.3 L 29.3 26.3 Z&quot;);caret-color:rgb(87, 165, 204);"/>
</g>
</g>
<g style="border-bottom-color:rgb(87, 165, 204);border-left-color:rgb(87, 165, 204);border-right-color:rgb(87, 165, 204);border-top-color:rgb(87, 165, 204);color:rgb(87, 165, 204);cursor:pointer;height:auto;outline-color:rgb(87, 165, 204);overflow-x:visible;overflow-y:visible;text-decoration:none solid rgb(87, 165, 204);text-decoration-color:rgb(87, 165, 204);width:auto;column-rule-color:rgb(87, 165, 204);perspective-origin:0px 0px;-webkit-text-emphasis-color:rgb(87, 165, 204);-webkit-text-fill-color:rgb(87, 165, 204);-webkit-text-stroke-color:rgb(87, 165, 204);transform-origin:0px 0px;caret-color:rgb(87, 165, 204);">
<g style="border-bottom-color:rgb(87, 165, 204);border-left-color:rgb(87, 165, 204);border-right-color:rgb(87, 165, 204);border-top-color:rgb(87, 165, 204);color:rgb(87, 165, 204);cursor:pointer;height:auto;outline-color:rgb(87, 165, 204);overflow-x:visible;overflow-y:visible;text-decoration:none solid rgb(87, 165, 204);text-decoration-color:rgb(87, 165, 204);width:auto;column-rule-color:rgb(87, 165, 204);perspective-origin:0px 0px;-webkit-text-emphasis-color:rgb(87, 165, 204);-webkit-text-fill-color:rgb(87, 165, 204);-webkit-text-stroke-color:rgb(87, 165, 204);transform-origin:0px 0px;caret-color:rgb(87, 165, 204);">
<g style="border-bottom-color:rgb(87, 165, 204);border-left-color:rgb(87, 165, 204);border-right-color:rgb(87, 165, 204);border-top-color:rgb(87, 165, 204);color:rgb(87, 165, 204);cursor:pointer;height:auto;outline-color:rgb(87, 165, 204);overflow-x:visible;overflow-y:visible;text-decoration:none solid rgb(87, 165, 204);text-decoration-color:rgb(87, 165, 204);width:auto;column-rule-color:rgb(87, 165, 204);perspective-origin:0px 0px;-webkit-text-emphasis-color:rgb(87, 165, 204);-webkit-text-fill-color:rgb(87, 165, 204);-webkit-text-stroke-color:rgb(87, 165, 204);transform-origin:0px 0px;caret-color:rgb(87, 165, 204);">
<path class="theme-secondary" d="M56.3,88.4l0.7,28.3l-7-5.7c-7.8,12.7-10.3,25-6.6,34.1l1.3,3.2l-3.2-1.4c-7.3-3.2-13.9-7.7-19.4-13.5 l-0.3-0.3l-0.1-0.5c-0.4-3.5-0.2-7.3,0.7-11.2l0-0.1c1.3-4.9,3.2-9.8,5.6-14.7c1.5-3.1,3.3-6.2,5.3-9.2l-6.1-5L56.3,88.4z" style="border-bottom-color:rgb(87, 165, 204);border-left-color:rgb(87, 165, 204);border-right-color:rgb(87, 165, 204);border-top-color:rgb(87, 165, 204);color:rgb(87, 165, 204);cursor:pointer;height:auto;outline-color:rgb(87, 165, 204);overflow-x:visible;overflow-y:visible;text-decoration:none solid rgb(87, 165, 204);text-decoration-color:rgb(87, 165, 204);width:auto;column-rule-color:rgb(87, 165, 204);perspective-origin:0px 0px;-webkit-text-emphasis-color:rgb(87, 165, 204);-webkit-text-fill-color:rgb(87, 165, 204);-webkit-text-stroke-color:rgb(87, 165, 204);transform-origin:0px 0px;fill:rgb(180, 118, 44);d:path(&quot;M 56.3 88.4 L 57 116.7 L 50 111 C 42.2 123.7 39.7 136 43.4 145.1 L 44.7 148.3 L 41.5 146.9 C 34.2 143.7 27.6 139.2 22.1 133.4 L 21.8 133.1 L 21.7 132.6 C 21.3 129.1 21.5 125.3 22.4 121.4 L 22.4 121.3 C 23.7 116.4 25.6 111.5 28 106.6 C 29.5 103.5 31.3 100.4 33.3 97.4 L 27.2 92.4 L 56.3 88.4 Z&quot;);caret-color:rgb(87, 165, 204);"/>
</g>
</g>
<g style="border-bottom-color:rgb(87, 165, 204);border-left-color:rgb(87, 165, 204);border-right-color:rgb(87, 165, 204);border-top-color:rgb(87, 165, 204);color:rgb(87, 165, 204);cursor:pointer;height:auto;outline-color:rgb(87, 165, 204);overflow-x:visible;overflow-y:visible;text-decoration:none solid rgb(87, 165, 204);text-decoration-color:rgb(87, 165, 204);width:auto;column-rule-color:rgb(87, 165, 204);perspective-origin:0px 0px;-webkit-text-emphasis-color:rgb(87, 165, 204);-webkit-text-fill-color:rgb(87, 165, 204);-webkit-text-stroke-color:rgb(87, 165, 204);transform-origin:0px 0px;caret-color:rgb(87, 165, 204);">
<g style="border-bottom-color:rgb(87, 165, 204);border-left-color:rgb(87, 165, 204);border-right-color:rgb(87, 165, 204);border-top-color:rgb(87, 165, 204);color:rgb(87, 165, 204);cursor:pointer;height:auto;outline-color:rgb(87, 165, 204);overflow-x:visible;overflow-y:visible;text-decoration:none solid rgb(87, 165, 204);text-decoration-color:rgb(87, 165, 204);width:auto;column-rule-color:rgb(87, 165, 204);perspective-origin:0px 0px;-webkit-text-emphasis-color:rgb(87, 165, 204);-webkit-text-fill-color:rgb(87, 165, 204);-webkit-text-stroke-color:rgb(87, 165, 204);transform-origin:0px 0px;caret-color:rgb(87, 165, 204);">
<path class="theme-secondary" d="M105.9,74.1l-0.7-28.3l7,5.7c7.8-12.7,10.3-25,6.6-34.1l-1.3-3.2l3.2,1.4c7.3,3.2,13.9,7.7,19.4,13.5 l0.3,0.3l0.1,0.5c0.4,3.5,0.2,7.3-0.7,11.2l0,0.1c-1.3,4.9-3.2,9.8-5.6,14.7c-1.5,3.1-3.3,6.2-5.3,9.2l6.1,5L105.9,74.1z" style="border-bottom-color:rgb(87, 165, 204);border-left-color:rgb(87, 165, 204);border-right-color:rgb(87, 165, 204);border-top-color:rgb(87, 165, 204);color:rgb(87, 165, 204);cursor:pointer;height:auto;outline-color:rgb(87, 165, 204);overflow-x:visible;overflow-y:visible;text-decoration:none solid rgb(87, 165, 204);text-decoration-color:rgb(87, 165, 204);width:auto;column-rule-color:rgb(87, 165, 204);perspective-origin:0px 0px;-webkit-text-emphasis-color:rgb(87, 165, 204);-webkit-text-fill-color:rgb(87, 165, 204);-webkit-text-stroke-color:rgb(87, 165, 204);transform-origin:0px 0px;fill:rgb(180, 118, 44);d:path(&quot;M 105.9 74.1 L 105.2 45.8 L 112.2 51.5 C 120 38.8 122.5 26.5 118.8 17.4 L 117.5 14.2 L 120.7 15.6 C 128 18.8 134.6 23.3 140.1 29.1 L 140.4 29.4 L 140.5 29.9 C 140.9 33.4 140.7 37.2 139.8 41.1 L 139.8 41.2 C 138.5 46.1 136.6 51 134.2 55.9 C 132.7 59 130.9 62.1 128.9 65.1 L 135 70.1 L 105.9 74.1 Z&quot;);caret-color:rgb(87, 165, 204);"/>
</g>
</g>
<g style="border-bottom-color:rgb(87, 165, 204);border-left-color:rgb(87, 165, 204);border-right-color:rgb(87, 165, 204);border-top-color:rgb(87, 165, 204);color:rgb(87, 165, 204);cursor:pointer;height:auto;outline-color:rgb(87, 165, 204);overflow-x:visible;overflow-y:visible;text-decoration:none solid rgb(87, 165, 204);text-decoration-color:rgb(87, 165, 204);width:auto;column-rule-color:rgb(87, 165, 204);perspective-origin:0px 0px;-webkit-text-emphasis-color:rgb(87, 165, 204);-webkit-text-fill-color:rgb(87, 165, 204);-webkit-text-stroke-color:rgb(87, 165, 204);transform-origin:0px 0px;caret-color:rgb(87, 165, 204);">
<g style="border-bottom-color:rgb(87, 165, 204);border-left-color:rgb(87, 165, 204);border-right-color:rgb(87, 165, 204);border-top-color:rgb(87, 165, 204);color:rgb(87, 165, 204);cursor:pointer;height:auto;outline-color:rgb(87, 165, 204);overflow-x:visible;overflow-y:visible;text-decoration:none solid rgb(87, 165, 204);text-decoration-color:rgb(87, 165, 204);width:auto;column-rule-color:rgb(87, 165, 204);perspective-origin:0px 0px;-webkit-text-emphasis-color:rgb(87, 165, 204);-webkit-text-fill-color:rgb(87, 165, 204);-webkit-text-stroke-color:rgb(87, 165, 204);transform-origin:0px 0px;caret-color:rgb(87, 165, 204);">
<path class="theme-secondary" d="M88.5,105.4l28.3-0.7l-5.7,7c12.7,7.8,25,10.3,34.1,6.6l3.2-1.3l-1.4,3.2c-3.2,7.3-7.7,13.9-13.5,19.4 l-0.3,0.3l-0.5,0.1c-3.5,0.4-7.3,0.2-11.2-0.7l-0.1,0c-4.9-1.3-9.8-3.2-14.7-5.6c-3.1-1.5-6.2-3.3-9.2-5.3l-5,6.1L88.5,105.4z" style="border-bottom-color:rgb(87, 165, 204);border-left-color:rgb(87, 165, 204);border-right-color:rgb(87, 165, 204);border-top-color:rgb(87, 165, 204);color:rgb(87, 165, 204);cursor:pointer;height:auto;outline-color:rgb(87, 165, 204);overflow-x:visible;overflow-y:visible;text-decoration:none solid rgb(87, 165, 204);text-decoration-color:rgb(87, 165, 204);width:auto;column-rule-color:rgb(87, 165, 204);perspective-origin:0px 0px;-webkit-text-emphasis-color:rgb(87, 165, 204);-webkit-text-fill-color:rgb(87, 165, 204);-webkit-text-stroke-color:rgb(87, 165, 204);transform-origin:0px 0px;fill:rgb(180, 118, 44);d:path(&quot;M 88.5 105.4 L 116.8 104.7 L 111.1 111.7 C 123.8 119.5 136.1 122 145.2 118.3 L 148.4 117 L 147 120.2 C 143.8 127.5 139.3 134.1 133.5 139.6 L 133.2 139.9 L 132.7 140 C 129.2 140.4 125.4 140.2 121.5 139.3 L 121.4 139.3 C 116.5 138 111.6 136.1 106.7 133.7 C 103.6 132.2 100.5 130.4 97.5 128.4 L 92.5 134.5 L 88.5 105.4 Z&quot;);caret-color:rgb(87, 165, 204);"/>
</g>
</g>
<g style="border-bottom-color:rgb(87, 165, 204);border-left-color:rgb(87, 165, 204);border-right-color:rgb(87, 165, 204);border-top-color:rgb(87, 165, 204);color:rgb(87, 165, 204);cursor:pointer;height:auto;outline-color:rgb(87, 165, 204);overflow-x:visible;overflow-y:visible;text-decoration:none solid rgb(87, 165, 204);text-decoration-color:rgb(87, 165, 204);width:auto;column-rule-color:rgb(87, 165, 204);perspective-origin:0px 0px;-webkit-text-emphasis-color:rgb(87, 165, 204);-webkit-text-fill-color:rgb(87, 165, 204);-webkit-text-stroke-color:rgb(87, 165, 204);transform-origin:0px 0px;caret-color:rgb(87, 165, 204);">
<g style="border-bottom-color:rgb(87, 165, 204);border-left-color:rgb(87, 165, 204);border-right-color:rgb(87, 165, 204);border-top-color:rgb(87, 165, 204);color:rgb(87, 165, 204);cursor:pointer;height:auto;outline-color:rgb(87, 165, 204);overflow-x:visible;overflow-y:visible;text-decoration:none solid rgb(87, 165, 204);text-decoration-color:rgb(87, 165, 204);width:auto;column-rule-color:rgb(87, 165, 204);perspective-origin:0px 0px;-webkit-text-emphasis-color:rgb(87, 165, 204);-webkit-text-fill-color:rgb(87, 165, 204);-webkit-text-stroke-color:rgb(87, 165, 204);transform-origin:0px 0px;caret-color:rgb(87, 165, 204);">
<path class="theme-secondary" d="M74.1,57.6l-28.3,0.7l5.7-7c-12.7-7.8-25-10.3-34.1-6.6L14.3,46l1.4-3.2c3.2-7.3,7.7-13.9,13.5-19.4 l0.3-0.3L30,23c3.5-0.4,7.3-0.2,11.2,0.7l0.1,0c4.9,1.3,9.8,3.2,14.7,5.6c3.1,1.5,6.2,3.3,9.2,5.3l5-6.1L74.1,57.6z" style="border-bottom-color:rgb(87, 165, 204);border-left-color:rgb(87, 165, 204);border-right-color:rgb(87, 165, 204);border-top-color:rgb(87, 165, 204);color:rgb(87, 165, 204);cursor:pointer;height:auto;outline-color:rgb(87, 165, 204);overflow-x:visible;overflow-y:visible;text-decoration:none solid rgb(87, 165, 204);text-decoration-color:rgb(87, 165, 204);width:auto;column-rule-color:rgb(87, 165, 204);perspective-origin:0px 0px;-webkit-text-emphasis-color:rgb(87, 165, 204);-webkit-text-fill-color:rgb(87, 165, 204);-webkit-text-stroke-color:rgb(87, 165, 204);transform-origin:0px 0px;fill:rgb(180, 118, 44);d:path(&quot;M 74.1 57.6 L 45.8 58.3 L 51.5 51.3 C 38.8 43.5 26.5 41 17.4 44.7 L 14.3 46 L 15.7 42.8 C 18.9 35.5 23.4 28.9 29.2 23.4 L 29.5 23.1 L 30 23 C 33.5 22.6 37.3 22.8 41.2 23.7 L 41.3 23.7 C 46.2 25 51.1 26.9 56 29.3 C 59.1 30.8 62.2 32.6 65.2 34.6 L 70.2 28.5 L 74.1 57.6 Z&quot;);caret-color:rgb(87, 165, 204);"/>
</g>
</g>
<g style="border-bottom-color:rgb(87, 165, 204);border-left-color:rgb(87, 165, 204);border-right-color:rgb(87, 165, 204);border-top-color:rgb(87, 165, 204);color:rgb(87, 165, 204);cursor:pointer;height:auto;outline-color:rgb(87, 165, 204);overflow-x:visible;overflow-y:visible;text-decoration:none solid rgb(87, 165, 204);text-decoration-color:rgb(87, 165, 204);width:auto;column-rule-color:rgb(87, 165, 204);perspective-origin:0px 0px;-webkit-text-emphasis-color:rgb(87, 165, 204);-webkit-text-fill-color:rgb(87, 165, 204);-webkit-text-stroke-color:rgb(87, 165, 204);transform-origin:0px 0px;caret-color:rgb(87, 165, 204);">
<g style="border-bottom-color:rgb(87, 165, 204);border-left-color:rgb(87, 165, 204);border-right-color:rgb(87, 165, 204);border-top-color:rgb(87, 165, 204);color:rgb(87, 165, 204);cursor:pointer;height:auto;outline-color:rgb(87, 165, 204);overflow-x:visible;overflow-y:visible;text-decoration:none solid rgb(87, 165, 204);text-decoration-color:rgb(87, 165, 204);width:auto;column-rule-color:rgb(87, 165, 204);perspective-origin:0px 0px;-webkit-text-emphasis-color:rgb(87, 165, 204);-webkit-text-fill-color:rgb(87, 165, 204);-webkit-text-stroke-color:rgb(87, 165, 204);transform-origin:0px 0px;caret-color:rgb(87, 165, 204);">
<circle class="theme-primary" cx="81.4" cy="80.8" r="60.5" style="border-bottom-color:rgb(87, 165, 204);border-left-color:rgb(87, 165, 204);border-right-color:rgb(87, 165, 204);border-top-color:rgb(87, 165, 204);color:rgb(87, 165, 204);cursor:pointer;height:auto;outline-color:rgb(87, 165, 204);overflow-x:visible;overflow-y:visible;text-decoration:none solid rgb(87, 165, 204);text-decoration-color:rgb(87, 165, 204);width:auto;column-rule-color:rgb(87, 165, 204);perspective-origin:0px 0px;-webkit-text-emphasis-color:rgb(87, 165, 204);-webkit-text-fill-color:rgb(87, 165, 204);-webkit-text-stroke-color:rgb(87, 165, 204);transform-origin:0px 0px;fill:rgb(218, 142, 53);cx:81.4px;cy:80.8px;r:60.5px;caret-color:rgb(87, 165, 204);"/>
</g>
</g>
<g style="border-bottom-color:rgb(87, 165, 204);border-left-color:rgb(87, 165, 204);border-right-color:rgb(87, 165, 204);border-top-color:rgb(87, 165, 204);color:rgb(87, 165, 204);cursor:pointer;height:auto;outline-color:rgb(87, 165, 204);overflow-x:visible;overflow-y:visible;text-decoration:none solid rgb(87, 165, 204);text-decoration-color:rgb(87, 165, 204);width:auto;column-rule-color:rgb(87, 165, 204);perspective-origin:0px 0px;-webkit-text-emphasis-color:rgb(87, 165, 204);-webkit-text-fill-color:rgb(87, 165, 204);-webkit-text-stroke-color:rgb(87, 165, 204);transform-origin:0px 0px;caret-color:rgb(87, 165, 204);">
<path style="border-bottom-color:rgb(87, 165, 204);border-left-color:rgb(87, 165, 204);border-right-color:rgb(87, 165, 204);border-top-color:rgb(87, 165, 204);color:rgb(87, 165, 204);cursor:pointer;height:auto;outline-color:rgb(87, 165, 204);overflow-x:visible;overflow-y:visible;text-decoration:none solid rgb(87, 165, 204);text-decoration-color:rgb(87, 165, 204);width:auto;column-rule-color:rgb(87, 165, 204);perspective-origin:0px 0px;-webkit-text-emphasis-color:rgb(87, 165, 204);-webkit-text-fill-color:rgb(87, 165, 204);-webkit-text-stroke-color:rgb(87, 165, 204);transform-origin:0px 0px;fill:rgb(255, 255, 255);d:path(&quot;M 59.3 59.5 C 55.8 57.9 53.2 56.3 50.6 54.4 C 46.6 51.6 42.9 48.5 39.8 45.2 C 32.2 37.5 28.2 29.6 29.3 23.1 L 27 25.6 C 21.5 31.4 14.2 41.6 14.1 46 C 14.2 46.5 14.2 46.5 14.2 46.5 C 15.2 49.9 16.8 53.3 19.1 56.6 L 19.1 56.7 C 22.1 61.5 28 69.4 49 78.6 L 45.3 85.6 L 73.6 78 L 63.5 51.5 L 59.3 59.5 Z&quot;);caret-color:rgb(87, 165, 204);" d="M59.3,59.5c-3.5-1.6-6.1-3.2-8.7-5.1c-4-2.8-7.7-5.9-10.8-9.2c-7.6-7.7-11.6-15.6-10.5-22.1L27,25.6 c-5.5,5.8-12.8,16-12.9,20.4c0.1,0.5,0.1,0.5,0.1,0.5c1,3.4,2.6,6.8,4.9,10.1l0,0.1c3,4.8,8.9,12.7,29.9,21.9l-3.7,7l28.3-7.6 L63.5,51.5L59.3,59.5z"/>
</g>
<g style="border-bottom-color:rgb(87, 165, 204);border-left-color:rgb(87, 165, 204);border-right-color:rgb(87, 165, 204);border-top-color:rgb(87, 165, 204);color:rgb(87, 165, 204);cursor:pointer;height:auto;outline-color:rgb(87, 165, 204);overflow-x:visible;overflow-y:visible;text-decoration:none solid rgb(87, 165, 204);text-decoration-color:rgb(87, 165, 204);width:auto;column-rule-color:rgb(87, 165, 204);perspective-origin:0px 0px;-webkit-text-emphasis-color:rgb(87, 165, 204);-webkit-text-fill-color:rgb(87, 165, 204);-webkit-text-stroke-color:rgb(87, 165, 204);transform-origin:0px 0px;caret-color:rgb(87, 165, 204);">
<path style="border-bottom-color:rgb(87, 165, 204);border-left-color:rgb(87, 165, 204);border-right-color:rgb(87, 165, 204);border-top-color:rgb(87, 165, 204);color:rgb(87, 165, 204);cursor:pointer;height:auto;outline-color:rgb(87, 165, 204);overflow-x:visible;overflow-y:visible;text-decoration:none solid rgb(87, 165, 204);text-decoration-color:rgb(87, 165, 204);width:auto;column-rule-color:rgb(87, 165, 204);perspective-origin:0px 0px;-webkit-text-emphasis-color:rgb(87, 165, 204);-webkit-text-fill-color:rgb(87, 165, 204);-webkit-text-stroke-color:rgb(87, 165, 204);transform-origin:0px 0px;fill:rgb(255, 255, 255);d:path(&quot;M 103.3 103.5 C 106.8 105.1 109.4 106.7 112 108.6 C 116 111.4 119.7 114.5 122.8 117.8 C 130.4 125.5 134.4 133.4 133.3 139.9 L 135.6 137.5 C 141.1 131.7 148.4 121.5 148.5 117.1 C 148.4 116.6 148.4 116.6 148.4 116.6 C 147.4 113.2 145.8 109.8 143.5 106.5 L 143.5 106.4 C 140.5 101.6 134.6 93.7 113.6 84.5 L 117.3 77.5 L 89 85.1 L 99.2 111.3 L 103.3 103.5 Z&quot;);caret-color:rgb(87, 165, 204);" d="M103.3,103.5c3.5,1.6,6.1,3.2,8.7,5.1c4,2.8,7.7,5.9,10.8,9.2c7.6,7.7,11.6,15.6,10.5,22.1l2.3-2.4 c5.5-5.8,12.8-16,12.9-20.4c-0.1-0.5-0.1-0.5-0.1-0.5c-1-3.4-2.6-6.8-4.9-10.1l0-0.1c-3-4.8-8.9-12.7-29.9-21.9l3.7-7l-28.3,7.6 l10.2,26.2L103.3,103.5z"/>
</g>
<g style="border-bottom-color:rgb(87, 165, 204);border-left-color:rgb(87, 165, 204);border-right-color:rgb(87, 165, 204);border-top-color:rgb(87, 165, 204);color:rgb(87, 165, 204);cursor:pointer;height:auto;outline-color:rgb(87, 165, 204);overflow-x:visible;overflow-y:visible;text-decoration:none solid rgb(87, 165, 204);text-decoration-color:rgb(87, 165, 204);width:auto;column-rule-color:rgb(87, 165, 204);perspective-origin:0px 0px;-webkit-text-emphasis-color:rgb(87, 165, 204);-webkit-text-fill-color:rgb(87, 165, 204);-webkit-text-stroke-color:rgb(87, 165, 204);transform-origin:0px 0px;caret-color:rgb(87, 165, 204);">
<path style="border-bottom-color:rgb(87, 165, 204);border-left-color:rgb(87, 165, 204);border-right-color:rgb(87, 165, 204);border-top-color:rgb(87, 165, 204);color:rgb(87, 165, 204);cursor:pointer;height:auto;outline-color:rgb(87, 165, 204);overflow-x:visible;overflow-y:visible;text-decoration:none solid rgb(87, 165, 204);text-decoration-color:rgb(87, 165, 204);width:auto;column-rule-color:rgb(87, 165, 204);perspective-origin:0px 0px;-webkit-text-emphasis-color:rgb(87, 165, 204);-webkit-text-fill-color:rgb(87, 165, 204);-webkit-text-stroke-color:rgb(87, 165, 204);transform-origin:0px 0px;fill:rgb(255, 255, 255);d:path(&quot;M 104 59.3 C 105.6 55.8 107.2 53.2 109.1 50.6 C 111.9 46.6 115 42.9 118.3 39.8 C 126 32.2 133.9 28.2 140.4 29.3 L 138 27 C 132.2 21.5 122 14.2 117.6 14.1 C 117.1 14.2 117.1 14.2 117.1 14.2 C 113.7 15.2 110.3 16.8 107 19.1 L 106.9 19.1 C 102.1 22.1 94.2 28 85 49 L 78 45.3 L 85.6 73.6 L 112 63.6 L 104 59.3 Z&quot;);caret-color:rgb(87, 165, 204);" d="M104,59.3c1.6-3.5,3.2-6.1,5.1-8.7c2.8-4,5.9-7.7,9.2-10.8c7.7-7.6,15.6-11.6,22.1-10.5L138,27 c-5.8-5.5-16-12.8-20.4-12.9c-0.5,0.1-0.5,0.1-0.5,0.1c-3.4,1-6.8,2.6-10.1,4.9l-0.1,0c-4.8,3-12.7,8.9-21.9,29.9l-7-3.7 l7.6,28.3L112,63.6L104,59.3z"/>
</g>
<g style="border-bottom-color:rgb(87, 165, 204);border-left-color:rgb(87, 165, 204);border-right-color:rgb(87, 165, 204);border-top-color:rgb(87, 165, 204);color:rgb(87, 165, 204);cursor:pointer;height:auto;outline-color:rgb(87, 165, 204);overflow-x:visible;overflow-y:visible;text-decoration:none solid rgb(87, 165, 204);text-decoration-color:rgb(87, 165, 204);width:auto;column-rule-color:rgb(87, 165, 204);perspective-origin:0px 0px;-webkit-text-emphasis-color:rgb(87, 165, 204);-webkit-text-fill-color:rgb(87, 165, 204);-webkit-text-stroke-color:rgb(87, 165, 204);transform-origin:0px 0px;caret-color:rgb(87, 165, 204);">
<path style="border-bottom-color:rgb(87, 165, 204);border-left-color:rgb(87, 165, 204);border-right-color:rgb(87, 165, 204);border-top-color:rgb(87, 165, 204);color:rgb(87, 165, 204);cursor:pointer;height:auto;outline-color:rgb(87, 165, 204);overflow-x:visible;overflow-y:visible;text-decoration:none solid rgb(87, 165, 204);text-decoration-color:rgb(87, 165, 204);width:auto;column-rule-color:rgb(87, 165, 204);perspective-origin:0px 0px;-webkit-text-emphasis-color:rgb(87, 165, 204);-webkit-text-fill-color:rgb(87, 165, 204);-webkit-text-stroke-color:rgb(87, 165, 204);transform-origin:0px 0px;fill:rgb(255, 255, 255);d:path(&quot;M 58.2 103.2 C 56.6 106.7 55 109.3 53.1 111.9 C 50.3 115.9 47.2 119.6 43.9 122.7 C 36.2 130.3 28.3 134.3 21.8 133.2 L 24.2 135.5 C 30 141 40.2 148.3 44.6 148.4 C 45.1 148.3 45.1 148.3 45.1 148.3 C 48.5 147.3 51.9 145.7 55.2 143.4 L 55.3 143.4 C 60.1 140.4 68 134.5 77.2 113.5 L 84.2 117.2 L 76.6 88.9 L 50.3 98.9 L 58.2 103.2 Z&quot;);caret-color:rgb(87, 165, 204);" d="M58.2,103.2c-1.6,3.5-3.2,6.1-5.1,8.7c-2.8,4-5.9,7.7-9.2,10.8c-7.7,7.6-15.6,11.6-22.1,10.5l2.4,2.3 c5.8,5.5,16,12.8,20.4,12.9c0.5-0.1,0.5-0.1,0.5-0.1c3.4-1,6.8-2.6,10.1-4.9l0.1,0c4.8-3,12.7-8.9,21.9-29.9l7,3.7l-7.6-28.3 L50.3,98.9L58.2,103.2z"/>
</g>
</g>
</g>
</svg>