<?xml version="1.0" encoding="UTF-8" ?>
<!DOCTYPE svg PUBLIC "-//W3C//DTD SVG 1.1//EN" "http://www.w3.org/Graphics/SVG/1.1/DTD/svg11.dtd">
<svg width="256pt" height="256pt" viewBox="0 0 256 256" version="1.1" xmlns="http://www.w3.org/2000/svg">
<g id="#000000ff">
<path fill="#000000" opacity="1.00" d=" M 99.05 0.00 L 158.01 0.00 C 162.36 8.21 165.88 16.80 169.79 25.22 C 181.72 51.31 193.42 77.51 205.51 103.52 C 206.40 105.70 207.32 108.12 206.61 110.49 C 205.20 115.40 202.54 119.81 200.50 124.47 C 180.55 168.34 160.32 212.09 140.45 256.00 L 116.59 256.00 C 115.91 254.76 115.28 253.51 114.68 252.24 C 94.61 208.75 74.52 165.26 54.38 121.80 C 52.55 117.60 49.86 113.62 49.24 109.00 C 49.63 104.35 52.39 100.35 54.21 96.16 C 66.47 69.72 78.62 43.24 90.85 16.79 C 93.51 11.16 95.69 5.27 99.05 0.00 M 104.52 19.59 C 91.58 47.60 78.71 75.64 65.60 103.56 C 64.48 105.94 63.24 108.66 64.71 111.19 C 77.58 139.34 90.29 167.58 103.23 195.70 C 105.57 200.89 107.77 206.15 110.54 211.13 C 110.56 197.92 110.52 184.70 110.57 171.48 C 104.87 169.31 99.94 165.11 97.24 159.61 C 96.08 156.94 97.10 154.00 97.49 151.29 C 98.67 146.17 99.00 140.91 98.95 135.68 C 102.24 137.26 105.77 138.96 107.72 142.22 C 109.33 145.09 110.24 148.28 111.59 151.27 C 111.99 147.09 111.92 142.90 111.82 138.71 C 114.75 140.11 117.74 141.58 120.00 143.99 C 124.83 148.81 126.96 155.55 128.23 162.09 C 128.87 165.74 129.58 169.68 128.14 173.24 C 125.50 179.58 120.55 184.73 118.31 191.25 C 117.60 196.56 122.55 200.68 122.73 205.91 C 121.30 210.95 115.95 213.91 114.81 219.08 C 114.99 222.57 116.87 225.65 118.20 228.80 C 121.78 236.22 124.61 243.99 128.58 251.22 C 133.06 240.58 137.59 229.97 142.14 219.36 C 138.42 222.65 134.32 225.53 129.82 227.66 C 127.90 228.53 125.67 229.20 123.57 228.52 C 121.56 226.65 120.36 224.07 119.50 221.50 C 119.10 220.53 119.18 219.61 119.75 218.74 C 122.06 214.46 125.98 211.17 127.70 206.57 C 128.08 201.68 124.70 197.23 125.20 192.34 C 128.35 184.61 134.82 178.63 137.64 170.75 C 139.14 161.90 134.93 152.76 137.98 144.06 C 138.86 141.18 141.81 139.96 144.21 138.62 C 144.19 142.84 144.07 147.07 144.50 151.27 C 145.76 148.49 146.63 145.55 147.93 142.80 C 149.79 139.18 153.62 137.36 157.11 135.70 C 157.24 140.49 157.26 145.32 158.27 150.03 C 158.71 152.94 159.75 155.90 159.17 158.86 C 156.86 164.76 151.49 168.61 146.12 171.51 C 145.35 175.29 145.78 179.18 145.71 183.00 C 145.91 191.84 145.35 200.70 146.08 209.53 C 149.61 203.90 151.90 197.63 154.73 191.65 C 166.82 165.39 178.63 139.00 190.71 112.74 C 191.31 111.19 192.10 109.64 192.11 107.95 C 191.14 104.25 189.13 100.95 187.58 97.48 C 175.80 71.95 164.02 46.42 152.17 20.92 C 149.92 16.07 147.99 11.05 145.07 6.54 C 144.39 10.71 144.95 15.17 143.02 19.06 C 141.81 21.53 140.73 24.06 139.79 26.65 C 141.49 25.15 143.11 23.56 145.01 22.31 C 147.72 22.27 147.97 25.35 148.60 27.30 C 151.69 40.21 154.97 53.07 158.33 65.91 C 158.88 68.48 159.79 71.16 159.19 73.80 C 157.51 77.06 154.15 79.00 152.18 82.06 C 151.17 83.91 150.77 86.02 150.16 88.02 C 152.44 85.91 154.46 83.38 157.31 82.01 C 158.80 81.44 161.24 81.00 162.12 82.76 C 163.99 86.32 164.52 90.38 165.56 94.22 C 166.42 98.16 167.85 102.02 167.99 106.08 C 168.13 109.06 165.37 111.13 162.79 111.89 C 158.73 113.23 154.45 112.16 150.56 110.82 C 151.09 108.77 151.16 106.36 152.75 104.77 C 154.36 103.09 156.22 101.67 158.00 100.17 C 155.20 100.83 152.27 101.31 149.77 102.81 C 146.76 104.63 144.63 107.50 142.49 110.22 C 143.09 108.05 143.61 105.86 144.10 103.66 C 140.86 105.49 138.43 108.34 136.70 111.60 C 136.07 109.56 135.47 107.47 134.33 105.65 C 131.60 101.44 127.25 98.53 124.73 94.16 C 123.36 91.81 123.33 88.43 125.55 86.57 C 130.52 82.28 137.70 81.19 141.97 75.96 C 146.43 71.00 146.12 62.34 140.95 58.00 C 137.82 55.37 133.73 54.48 129.96 53.19 C 132.53 50.64 135.62 48.74 138.50 46.58 C 140.15 45.34 140.51 43.17 141.36 41.40 C 139.32 43.30 137.49 45.79 134.62 46.41 C 131.30 47.22 127.87 46.89 124.50 46.70 C 123.37 43.40 121.69 40.25 121.17 36.78 C 121.00 34.49 121.31 32.20 121.54 29.92 C 120.25 31.90 118.57 33.74 117.96 36.07 C 117.62 39.39 118.52 42.69 118.35 46.01 C 117.73 48.89 116.20 51.46 115.35 54.26 C 114.09 59.01 111.18 63.77 113.22 68.76 C 113.78 68.77 114.91 68.79 115.47 68.81 C 117.44 64.05 120.78 59.11 126.13 57.93 C 131.09 57.24 136.77 59.26 139.46 63.65 C 141.45 66.86 140.12 71.14 137.41 73.49 C 131.99 78.19 123.88 77.76 118.56 82.60 C 114.41 86.33 113.14 92.45 114.60 97.72 C 115.86 102.15 117.86 106.31 119.29 110.68 C 117.21 108.00 114.86 105.53 112.01 103.65 C 112.48 105.85 112.96 108.05 113.53 110.23 C 111.56 107.66 109.60 104.96 106.84 103.17 C 104.22 101.41 101.05 100.88 98.04 100.13 C 100.98 103.01 106.09 105.74 105.04 110.60 C 102.41 112.39 99.07 112.64 95.98 112.41 C 93.10 112.19 89.96 110.97 88.65 108.21 C 87.58 105.85 88.50 103.21 88.94 100.81 C 90.59 94.35 92.14 87.86 94.18 81.50 C 96.16 81.74 98.36 81.58 100.08 82.78 C 102.24 84.26 104.07 86.16 106.01 87.90 C 105.36 85.92 104.92 83.85 103.91 82.02 C 101.90 79.01 98.52 77.09 96.91 73.80 C 96.28 69.94 97.78 66.14 98.62 62.42 C 101.61 50.46 104.93 38.59 107.72 26.58 C 108.06 25.30 108.41 24.02 108.97 22.82 C 112.12 20.74 114.13 25.07 116.22 26.74 C 115.39 24.32 114.49 21.91 113.35 19.62 C 111.14 15.64 111.84 10.94 111.24 6.59 C 108.16 10.45 106.61 15.19 104.52 19.59 Z" />
</g>
<g id="#f5f5f5ff">
<path fill="#f5f5f5" opacity="1.00" d=" M 104.52 19.59 C 106.61 15.19 108.16 10.45 111.24 6.59 C 111.84 10.94 111.14 15.64 113.35 19.62 C 114.49 21.91 115.39 24.32 116.22 26.74 C 114.13 25.07 112.12 20.74 108.97 22.82 C 108.41 24.02 108.06 25.30 107.72 26.58 C 104.93 38.59 101.61 50.46 98.62 62.42 C 97.78 66.14 96.28 69.94 96.91 73.80 C 98.52 77.09 101.90 79.01 103.91 82.02 C 104.92 83.85 105.36 85.92 106.01 87.90 C 104.07 86.16 102.24 84.26 100.08 82.78 C 98.36 81.58 96.16 81.74 94.18 81.50 C 92.14 87.86 90.59 94.35 88.94 100.81 C 88.50 103.21 87.58 105.85 88.65 108.21 C 89.96 110.97 93.10 112.19 95.98 112.41 C 99.07 112.64 102.41 112.39 105.04 110.60 C 106.09 105.74 100.98 103.01 98.04 100.13 C 101.05 100.88 104.22 101.41 106.84 103.17 C 109.60 104.96 111.56 107.66 113.53 110.23 C 112.96 108.05 112.48 105.85 112.01 103.65 C 114.86 105.53 117.21 108.00 119.29 110.68 C 117.86 106.31 115.86 102.15 114.60 97.72 C 113.14 92.45 114.41 86.33 118.56 82.60 C 123.88 77.76 131.99 78.19 137.41 73.49 C 140.12 71.14 141.45 66.86 139.46 63.65 C 136.77 59.26 131.09 57.24 126.13 57.93 C 120.78 59.11 117.44 64.05 115.47 68.81 C 114.91 68.79 113.78 68.77 113.22 68.76 C 111.18 63.77 114.09 59.01 115.35 54.26 C 116.20 51.46 117.73 48.89 118.35 46.01 C 118.52 42.69 117.62 39.39 117.96 36.07 C 118.57 33.74 120.25 31.90 121.54 29.92 C 121.31 32.20 121.00 34.49 121.17 36.78 C 121.69 40.25 123.37 43.40 124.50 46.70 C 127.87 46.89 131.30 47.22 134.62 46.41 C 137.49 45.79 139.32 43.30 141.36 41.40 C 140.51 43.17 140.15 45.34 138.50 46.58 C 135.62 48.74 132.53 50.64 129.96 53.19 C 133.73 54.48 137.82 55.37 140.95 58.00 C 146.12 62.34 146.43 71.00 141.97 75.96 C 137.70 81.19 130.52 82.28 125.55 86.57 C 123.33 88.43 123.36 91.81 124.73 94.16 C 127.25 98.53 131.60 101.44 134.33 105.65 C 135.47 107.47 136.07 109.56 136.70 111.60 C 138.43 108.34 140.86 105.49 144.10 103.66 C 143.61 105.86 143.09 108.05 142.49 110.22 C 144.63 107.50 146.76 104.63 149.77 102.81 C 152.27 101.31 155.20 100.83 158.00 100.17 C 156.22 101.67 154.36 103.09 152.75 104.77 C 151.16 106.36 151.09 108.77 150.56 110.82 C 154.45 112.16 158.73 113.23 162.79 111.89 C 165.37 111.13 168.13 109.06 167.99 106.08 C 167.85 102.02 166.42 98.16 165.56 94.22 C 164.52 90.38 163.99 86.32 162.12 82.76 C 161.24 81.00 158.80 81.44 157.31 82.01 C 154.46 83.38 152.44 85.91 150.16 88.02 C 150.77 86.02 151.17 83.91 152.18 82.06 C 154.15 79.00 157.51 77.06 159.19 73.80 C 159.79 71.16 158.88 68.48 158.33 65.91 C 154.97 53.07 151.69 40.21 148.60 27.30 C 147.97 25.35 147.72 22.27 145.01 22.31 C 143.11 23.56 141.49 25.15 139.79 26.65 C 140.73 24.06 141.81 21.53 143.02 19.06 C 144.95 15.17 144.39 10.71 145.07 6.54 C 147.99 11.05 149.92 16.07 152.17 20.92 C 164.02 46.42 175.80 71.95 187.58 97.48 C 189.13 100.95 191.14 104.25 192.11 107.95 C 192.10 109.64 191.31 111.19 190.71 112.74 C 178.63 139.00 166.82 165.39 154.73 191.65 C 151.90 197.63 149.61 203.90 146.08 209.53 C 145.35 200.70 145.91 191.84 145.71 183.00 C 145.78 179.18 145.35 175.29 146.12 171.51 C 151.49 168.61 156.86 164.76 159.17 158.86 C 159.75 155.90 158.71 152.94 158.27 150.03 C 157.26 145.32 157.24 140.49 157.11 135.70 C 153.62 137.36 149.79 139.18 147.93 142.80 C 146.63 145.55 145.76 148.49 144.50 151.27 C 144.07 147.07 144.19 142.84 144.21 138.62 C 141.81 139.96 138.86 141.18 137.98 144.06 C 134.93 152.76 139.14 161.90 137.64 170.75 C 134.82 178.63 128.35 184.61 125.20 192.34 C 124.70 197.23 128.08 201.68 127.70 206.57 C 125.98 211.17 122.06 214.46 119.75 218.74 C 119.18 219.61 119.10 220.53 119.50 221.50 C 120.36 224.07 121.56 226.65 123.57 228.52 C 125.67 229.20 127.90 228.53 129.82 227.66 C 134.32 225.53 138.42 222.65 142.14 219.36 C 137.59 229.97 133.06 240.58 128.58 251.22 C 124.61 243.99 121.78 236.22 118.20 228.80 C 116.87 225.65 114.99 222.57 114.81 219.08 C 115.95 213.91 121.30 210.95 122.73 205.91 C 122.55 200.68 117.60 196.56 118.31 191.25 C 120.55 184.73 125.50 179.58 128.14 173.24 C 129.58 169.68 128.87 165.74 128.23 162.09 C 126.96 155.55 124.83 148.81 120.00 143.99 C 117.74 141.58 114.75 140.11 111.82 138.71 C 111.92 142.90 111.99 147.09 111.59 151.27 C 110.24 148.28 109.33 145.09 107.72 142.22 C 105.77 138.96 102.24 137.26 98.95 135.68 C 99.00 140.91 98.67 146.17 97.49 151.29 C 97.10 154.00 96.08 156.94 97.24 159.61 C 99.94 165.11 104.87 169.31 110.57 171.48 C 110.52 184.70 110.56 197.92 110.54 211.13 C 107.77 206.15 105.57 200.89 103.23 195.70 C 90.29 167.58 77.58 139.34 64.71 111.19 C 63.24 108.66 64.48 105.94 65.60 103.56 C 78.71 75.64 91.58 47.60 104.52 19.59 Z" />
</g>
</svg>
