<?xml version="1.0" encoding="UTF-8" ?>
<!DOCTYPE svg PUBLIC "-//W3C//DTD SVG 1.1//EN" "http://www.w3.org/Graphics/SVG/1.1/DTD/svg11.dtd">
<svg width="512pt" height="512pt" viewBox="0 0 512 512" version="1.1" xmlns="http://www.w3.org/2000/svg">
<g id="#07090aff">
<path fill="#07090a" opacity="1.00" d=" M 255.35 59.02 C 257.20 59.07 257.64 61.23 258.65 62.42 C 294.40 117.62 330.24 172.76 366.03 227.93 C 371.50 236.31 376.84 244.77 382.44 253.06 C 340.29 319.86 297.90 386.52 255.80 453.35 C 255.10 452.69 254.48 451.99 253.92 451.23 C 212.27 385.43 170.64 319.63 128.99 253.83 C 131.52 249.56 134.37 245.48 137.01 241.29 C 176.48 180.55 215.81 119.71 255.35 59.02 M 255.26 67.82 C 215.50 129.13 175.58 190.33 135.77 251.61 C 134.75 252.64 135.39 253.95 136.10 254.94 C 175.98 317.52 215.59 380.27 255.52 442.82 C 295.48 379.97 335.36 317.08 375.31 254.23 C 375.89 253.39 375.89 252.55 375.29 251.73 C 336.03 191.33 296.70 130.97 257.48 70.54 C 256.80 69.58 256.01 68.71 255.26 67.82 Z" />
<path fill="#07090a" opacity="1.00" d=" M 248.13 93.01 C 250.46 88.71 253.20 84.63 255.91 80.56 C 258.57 84.71 261.11 88.93 263.80 93.07 C 263.01 94.24 262.20 95.40 261.22 96.42 C 259.48 93.52 257.69 90.64 255.89 87.78 C 254.07 90.46 252.51 93.31 250.64 95.96 C 248.96 96.04 248.63 94.23 248.13 93.01 Z" />
<path fill="#07090a" opacity="1.00" d=" M 255.28 93.07 C 257.97 93.44 258.62 97.02 259.94 99.01 C 258.87 101.54 257.27 103.79 255.88 106.15 C 254.38 103.79 252.95 101.40 251.50 99.01 C 252.77 97.04 253.92 94.99 255.28 93.07 Z" />
<path fill="#07090a" opacity="1.00" d=" M 142.57 252.99 C 177.11 200.08 211.45 147.03 245.99 94.12 C 246.90 95.76 247.83 97.39 248.76 99.02 C 247.56 100.95 246.38 102.90 245.25 104.87 C 248.82 110.37 251.92 116.17 255.46 121.68 C 255.65 121.70 256.03 121.75 256.22 121.77 C 259.73 116.17 262.92 110.36 266.49 104.79 C 265.37 102.87 263.89 101.11 263.18 98.99 C 263.57 97.50 264.53 96.24 265.23 94.88 C 267.69 97.88 269.63 101.25 271.77 104.48 C 304.00 153.98 336.14 203.54 368.42 253.00 C 335.83 304.19 303.36 355.46 270.80 406.67 C 269.00 409.49 267.29 412.37 265.29 415.07 C 264.44 413.76 263.71 412.41 263.11 410.99 C 264.07 408.91 265.33 407.00 266.49 405.03 C 262.99 399.90 259.98 394.46 256.51 389.32 C 256.21 389.26 255.60 389.14 255.29 389.08 C 251.85 394.33 248.71 399.77 245.26 405.02 C 246.40 407.05 247.56 409.07 248.78 411.07 C 247.86 412.54 246.95 414.03 246.01 415.49 C 243.58 412.30 241.59 408.83 239.43 405.48 C 207.12 354.66 174.89 303.80 142.57 252.99 M 242.44 214.55 C 243.45 216.19 245.17 217.77 244.64 219.89 C 244.04 223.68 242.63 227.28 241.42 230.91 C 236.90 243.84 232.45 256.78 227.93 269.70 C 221.30 255.46 214.92 241.11 208.37 226.83 C 207.06 224.05 205.96 221.00 206.53 217.88 C 207.25 216.79 208.04 215.75 208.89 214.76 C 202.20 214.82 195.50 214.66 188.81 214.85 C 193.27 219.17 196.38 224.63 198.83 230.28 C 208.25 250.94 217.53 271.66 227.02 292.29 C 234.02 272.33 241.14 252.41 248.18 232.46 C 249.76 227.88 251.23 223.13 254.18 219.19 C 255.59 217.33 257.64 216.13 259.43 214.67 C 253.77 214.41 248.10 214.58 242.44 214.55 M 260.82 214.65 C 261.96 215.96 263.35 217.10 264.22 218.64 C 265.58 222.26 265.43 226.19 265.47 230.00 C 265.40 247.65 265.56 265.31 265.40 282.96 C 265.49 286.29 263.64 289.16 261.37 291.43 C 267.34 291.50 273.31 291.58 279.28 291.38 C 276.25 288.41 275.42 284.11 275.49 280.02 C 275.46 260.21 275.45 240.40 275.50 220.59 C 280.65 220.68 285.80 220.50 290.96 220.68 C 294.74 220.95 298.74 221.65 301.79 224.07 C 304.86 226.74 305.43 231.20 305.05 235.04 C 304.52 240.54 300.98 245.62 295.96 247.95 C 291.94 249.92 287.36 249.62 283.02 249.83 C 289.76 261.16 297.06 272.16 303.65 283.59 C 305.43 286.62 307.63 289.69 310.97 291.10 C 314.43 292.63 318.30 292.31 321.99 292.25 C 315.10 283.98 309.97 274.45 305.27 264.81 C 298.94 263.93 294.01 259.62 290.14 254.82 C 296.48 254.62 302.65 252.40 307.86 248.83 C 312.15 245.54 314.48 240.22 315.31 234.99 C 316.54 227.04 311.61 218.11 303.53 216.20 C 295.53 214.12 287.19 214.60 279.00 214.54 C 272.94 214.59 266.87 214.42 260.82 214.65 Z" />
<path fill="#07090a" opacity="1.00" d=" M 247.97 104.80 C 248.69 103.74 249.00 102.02 250.59 102.07 C 252.40 104.63 253.69 107.51 255.55 110.05 C 255.78 109.92 256.26 109.67 256.49 109.54 C 258.35 106.87 259.80 103.95 261.60 101.24 C 262.31 102.44 263.01 103.65 263.72 104.87 C 261.20 108.73 259.04 112.82 256.53 116.68 C 256.23 116.75 255.63 116.89 255.33 116.96 C 252.76 112.98 250.50 108.81 247.97 104.80 Z" />
<path fill="#07090a" opacity="1.00" d=" M 247.97 405.14 C 250.62 400.96 253.15 396.71 255.90 392.60 C 258.49 396.74 261.04 400.90 263.69 405.00 C 263.01 406.28 262.33 407.56 261.65 408.85 C 259.58 405.95 257.73 402.91 255.89 399.86 C 254.09 402.50 252.56 405.31 250.74 407.93 C 249.01 408.14 248.72 406.24 247.97 405.14 Z" />
<path fill="#07090a" opacity="1.00" d=" M 255.38 404.77 C 257.64 406.17 258.87 408.73 259.90 411.10 C 258.97 413.70 257.24 415.91 255.88 418.28 C 254.37 415.90 252.92 413.49 251.50 411.05 C 252.88 409.01 254.17 406.91 255.38 404.77 Z" />
<path fill="#07090a" opacity="1.00" d=" M 248.14 416.98 C 248.63 415.79 248.91 413.93 250.59 414.16 C 252.33 416.62 253.57 419.39 255.26 421.89 C 255.58 421.83 256.22 421.72 256.54 421.66 C 258.23 419.23 259.45 416.52 261.14 414.09 C 262.62 414.11 262.90 416.00 263.78 416.90 C 261.26 420.76 259.11 424.85 256.59 428.70 C 256.24 428.76 255.55 428.87 255.20 428.92 C 252.81 424.96 250.32 421.05 248.14 416.98 Z" />
</g>
</svg>
