<?xml version="1.0" encoding="UTF-8" standalone="no"?>
<svg
   xmlns:dc="http://purl.org/dc/elements/1.1/"
   xmlns:cc="http://creativecommons.org/ns#"
   xmlns:rdf="http://www.w3.org/1999/02/22-rdf-syntax-ns#"
   xmlns:svg="http://www.w3.org/2000/svg"
   xmlns="http://www.w3.org/2000/svg"
   xmlns:sodipodi="http://sodipodi.sourceforge.net/DTD/sodipodi-0.dtd"
   xmlns:inkscape="http://www.inkscape.org/namespaces/inkscape"
   width="256pt"
   height="256pt"
   viewBox="0 0 256 256"
   version="1.1"
   id="svg18"
   sodipodi:docname="Icon.svg"
   inkscape:version="0.92.4 (5da689c313, 2019-01-14)">
  <metadata
     id="metadata24">
    <rdf:RDF>
      <cc:Work
         rdf:about="">
        <dc:format>image/svg+xml</dc:format>
        <dc:type
           rdf:resource="http://purl.org/dc/dcmitype/StillImage" />
      </cc:Work>
    </rdf:RDF>
  </metadata>
  <defs
     id="defs22" />
  <sodipodi:namedview
     pagecolor="#ffffff"
     bordercolor="#666666"
     borderopacity="1"
     objecttolerance="10"
     gridtolerance="10"
     guidetolerance="10"
     inkscape:pageopacity="0"
     inkscape:pageshadow="2"
     inkscape:window-width="1920"
     inkscape:window-height="1017"
     id="namedview20"
     showgrid="false"
     inkscape:zoom="1.9555922"
     inkscape:cx="164.10991"
     inkscape:cy="187.03378"
     inkscape:window-x="-8"
     inkscape:window-y="-8"
     inkscape:window-maximized="1"
     inkscape:current-layer="svg18" />
  <g
     id="#000000ff">
    <path
       d="m 126.21,0 h 16.81 L 80.796271,134.18559 137.34,256 H 118.56 L 62.55,134.42 Z"
       id="path2"
       inkscape:connector-curvature="0"
       style="opacity:1;fill:#000000"
       sodipodi:nodetypes="ccccccc" />
    <path
       fill="#000000"
       opacity="1.00"
       d=" M 162.58 0.00 L 191.73 0.00 C 192.78 3.28 194.10 6.81 193.19 10.28 C 191.80 14.75 188.14 18.02 186.39 22.32 C 185.03 25.89 185.31 29.82 184.20 33.45 C 183.00 37.28 179.88 40.19 178.88 44.11 C 179.18 48.21 181.74 51.62 183.94 54.93 C 187.27 49.13 190.85 43.36 195.87 38.85 C 199.54 35.50 203.72 31.91 208.96 31.76 C 217.46 31.48 226.21 34.67 232.05 40.96 C 235.43 44.62 237.41 49.93 236.07 54.87 C 234.95 59.74 231.54 63.79 227.37 66.39 C 220.98 70.36 213.59 72.22 206.46 74.36 C 197.18 77.13 188.79 83.76 185.11 92.86 C 182.87 98.87 183.39 105.49 184.59 111.66 C 185.66 117.20 188.40 122.19 190.42 127.41 C 191.93 131.19 192.39 135.27 193.03 139.26 C 190.91 135.14 188.33 131.20 184.91 128.04 C 182.80 126.16 180.15 125.09 177.74 123.69 C 180.10 127.79 180.09 132.62 181.01 137.14 C 177.05 130.94 172.27 124.78 165.48 121.53 C 161.48 119.54 156.95 119.35 152.58 119.12 C 157.54 122.85 163.18 126.53 165.59 132.53 C 167.07 135.86 164.96 140.38 161.31 141.10 C 154.29 142.78 146.73 143.09 139.77 140.94 C 134.99 139.59 131.94 134.85 131.27 130.13 C 130.91 126.23 131.95 122.39 132.76 118.61 C 134.86 108.96 137.71 99.50 139.75 89.84 C 140.67 86.63 141.08 82.92 143.51 80.44 C 146.07 78.92 149.43 78.48 152.17 79.82 C 156.96 82.02 160.38 86.21 163.69 90.16 C 163.69 86.62 164.40 82.66 162.25 79.55 C 159.00 74.58 153.63 71.61 149.81 67.16 C 148.12 65.23 146.80 62.74 147.20 60.10 C 148.02 52.51 151.25 45.48 153.20 38.15 C 156.47 25.47 159.45 12.72 162.58 0.00 Z"
       id="path4" />
    <path
       fill="#000000"
       opacity="1.00"
       d=" M 200.81 0.00 L 235.77 0.00 C 234.07 2.78 232.85 6.48 229.38 7.48 C 221.36 10.12 212.74 10.12 204.38 9.97 C 203.49 6.54 202.40 3.17 200.81 0.00 Z"
       id="path6" />
    <path
       fill="#000000"
       opacity="1.00"
       d=" M 238.03 0.00 L 256.00 0.00 L 256.00 122.60 C 250.32 127.10 244.77 131.97 240.92 138.19 C 241.66 134.18 242.35 130.17 242.93 126.14 C 240.49 127.09 237.96 128.04 236.02 129.86 C 233.39 132.51 231.74 135.90 229.95 139.12 C 227.65 135.34 225.98 131.20 223.57 127.49 C 218.84 120.95 212.37 115.94 207.34 109.67 C 202.68 103.86 202.09 94.19 207.81 88.87 C 216.43 80.70 229.40 79.36 237.68 70.72 C 243.37 64.60 248.10 56.21 246.18 47.59 C 244.83 39.51 239.24 32.75 232.39 28.57 C 227.07 25.57 220.99 24.42 215.06 23.29 C 216.06 22.09 217.01 20.84 217.82 19.51 C 221.98 14.43 228.78 12.83 233.60 8.54 C 235.99 6.26 236.69 2.90 238.03 0.00 Z"
       id="path8" />
    <path
       fill="#000000"
       opacity="1.00"
       d=" M 151.64 208.74 C 151.99 202.04 152.20 195.33 152.28 188.63 C 157.44 190.86 162.52 193.50 166.73 197.28 C 169.48 200.08 171.61 203.45 173.32 206.96 C 175.10 211.47 176.23 216.20 177.66 220.83 C 178.27 217.57 178.84 214.30 179.33 211.03 C 179.22 205.49 178.14 200.03 177.51 194.54 C 182.99 196.68 188.45 199.19 192.77 203.28 C 201.01 210.31 206.04 220.38 208.42 230.83 C 211.04 239.03 212.35 247.53 213.72 256.00 L 165.34 256.00 C 160.70 252.58 156.74 248.33 152.88 244.08 C 150.13 241.04 147.78 237.28 147.86 233.04 C 148.07 224.80 151.12 216.95 151.64 208.74 Z"
       id="path10" />
    <path
       fill="#000000"
       opacity="1.00"
       d=" M 233.59 201.53 C 236.14 198.27 240.21 196.91 243.92 195.49 C 244.12 201.62 243.27 207.79 244.09 213.90 C 244.34 216.32 245.32 218.58 245.66 220.99 C 246.74 215.62 248.16 210.30 250.36 205.27 C 251.86 201.96 254.20 199.15 256.00 196.02 L 256.00 256.00 L 230.90 256.00 C 230.89 250.23 230.96 244.45 230.40 238.70 C 229.77 231.16 228.23 223.62 229.04 216.03 C 229.57 210.99 230.37 205.63 233.59 201.53 Z"
       id="path12" />
  </g>
  <g
     id="#ffffffff">
    <path
       d="m 143.02,0 h 19.56 c -3.13,12.72 -6.11,25.47 -9.38,38.15 -1.95,7.33 -5.18,14.36 -6,21.95 -0.4,2.64 0.92,5.13 2.61,7.06 3.82,4.45 9.19,7.42 12.44,12.39 2.15,3.11 1.44,7.07 1.44,10.61 -3.31,-3.95 -6.73,-8.14 -11.52,-10.34 -2.74,-1.34 -6.1,-0.9 -8.66,0.62 -2.43,2.48 -2.84,6.19 -3.76,9.4 -2.04,9.66 -4.89,19.12 -6.99,28.77 -0.81,3.78 -1.85,7.62 -1.49,11.52 0.67,4.72 3.72,9.46 8.5,10.81 6.96,2.15 14.52,1.84 21.54,0.16 3.65,-0.72 5.76,-5.24 4.28,-8.57 -2.41,-6 -8.05,-9.68 -13.01,-13.41 4.37,0.23 8.9,0.42 12.9,2.41 6.79,3.25 11.57,9.41 15.53,15.61 -0.92,-4.52 -0.91,-9.35 -3.27,-13.45 2.41,1.4 5.06,2.47 7.17,4.35 3.42,3.16 6,7.1 8.12,11.22 -0.64,-3.99 -1.1,-8.07 -2.61,-11.85 -2.02,-5.22 -4.76,-10.21 -5.83,-15.75 -1.2,-6.17 -1.72,-12.79 0.52,-18.8 3.68,-9.1 12.07,-15.73 21.35,-18.5 7.13,-2.14 14.52,-4 20.91,-7.97 4.17,-2.6 7.58,-6.65 8.7,-11.52 1.34,-4.94 -0.64,-10.25 -4.02,-13.91 -5.84,-6.29 -14.59,-9.48 -23.09,-9.2 -5.24,0.15 -9.42,3.74 -13.09,7.09 -5.02,4.51 -8.6,10.28 -11.93,16.08 -2.2,-3.31 -4.76,-6.72 -5.06,-10.82 1,-3.92 4.12,-6.83 5.32,-10.66 1.11,-3.63 0.83,-7.56 2.19,-11.13 1.75,-4.3 5.41,-7.57 6.8,-12.04 0.91,-3.47 -0.41,-7 -1.46,-10.28 h 9.08 c 1.59,3.17 2.68,6.54 3.57,9.97 8.36,0.15 16.98,0.15 25,-2.49 3.47,-1 4.69,-4.7 6.39,-7.48 h 2.26 c -1.34,2.9 -2.04,6.26 -4.43,8.54 -4.82,4.29 -11.62,5.89 -15.78,10.97 -0.81,1.33 -1.76,2.58 -2.76,3.78 5.93,1.13 12.01,2.28 17.33,5.28 6.85,4.18 12.44,10.94 13.79,19.02 1.92,8.62 -2.81,17.01 -8.5,23.13 -8.28,8.64 -21.25,9.98 -29.87,18.15 -5.72,5.32 -5.13,14.99 -0.47,20.8 5.03,6.27 11.5,11.28 16.23,17.82 2.41,3.71 4.08,7.85 6.38,11.63 1.79,-3.22 3.44,-6.61 6.07,-9.26 1.94,-1.82 4.47,-2.77 6.91,-3.72 -0.58,4.03 -1.27,8.04 -2.01,12.05 3.85,-6.22 9.4,-11.09 15.08,-15.59 v 73.42 c -1.8,3.13 -4.14,5.94 -5.64,9.25 -2.2,5.03 -3.62,10.35 -4.7,15.72 -0.34,-2.41 -1.32,-4.67 -1.57,-7.09 -0.82,-6.11 0.03,-12.28 -0.17,-18.41 -3.71,1.42 -7.78,2.78 -10.33,6.04 -3.22,4.1 -4.02,9.46 -4.55,14.5 -0.81,7.59 0.73,15.13 1.36,22.67 0.56,5.75 0.49,11.53 0.5,17.3 h -17.18 c -1.37,-8.47 -2.68,-16.97 -5.3,-25.17 -2.38,-10.45 -7.41,-20.52 -15.65,-27.55 -4.32,-4.09 -9.78,-6.6 -15.26,-8.74 0.63,5.49 1.71,10.95 1.82,16.49 -0.49,3.27 -1.06,6.54 -1.67,9.8 -1.43,-4.63 -2.56,-9.36 -4.34,-13.87 -1.71,-3.51 -3.84,-6.88 -6.59,-9.68 -4.21,-3.78 -9.29,-6.42 -14.45,-8.65 -0.08,6.7 -0.29,13.41 -0.64,20.11 -0.52,8.21 -3.57,16.06 -3.78,24.3 -0.08,4.24 2.27,8 5.02,11.04 3.86,4.25 7.82,8.5 12.46,11.92 h -28 c -1.93,-2.99 -3.45,-6.22 -4.95,-9.44 -16.66,-35.52 -32.31924,-71.50877 -49.05,-106.99 -1.081075,-2.29266 -2.543729,-5.38441 -2.543729,-5.38441 0,0 5.523729,-11.29559 7.603729,-15.85559 4.11,-8.9 8.17,-17.82 12.33,-26.7 5.83,-13.08 12.33,-25.85 17.96,-39.02 C 126.84,35.09 134.98,17.57 143.02,0 Z"
       id="path15"
       inkscape:connector-curvature="0"
       style="opacity:1;fill:#ffffff"
       sodipodi:nodetypes="cccccccccccccccccccccccccccccccccccccccccccccccccccccccccccccccccccccccccccccccsccccc" />
  </g>
</svg>
